<?xml version="1.0" encoding="utf-8"?>
<!-- Generator: Adobe Illustrator 25.0.1, SVG Export Plug-In . SVG Version: 6.00 Build 0)  -->
<svg version="1.1" id="Layer_1" xmlns="http://www.w3.org/2000/svg" xmlns:xlink="http://www.w3.org/1999/xlink" x="0px" y="0px"
	 viewBox="0 0 48 52" style="enable-background:new 0 0 48 52;" xml:space="preserve">
<style type="text/css">
	.st0{fill:none;stroke:#151727;stroke-width:2;stroke-linecap:round;stroke-linejoin:round;}
	.st1{fill:none;stroke:#151727;stroke-width:2;stroke-linecap:round;stroke-linejoin:round;stroke-dasharray:4,5;}
</style>
<desc>Created with Sketch.</desc>
<g id="Main">
	<g id="Tour---Kingdom-of-Volcanoes-and-Glaciers" transform="translate(-598.000000, -2707.000000)">
		<g id="icon_x2F_ascent" transform="translate(599.000000, 2708.000000)">
			<g>
				<polyline id="Stroke-145" class="st0" points="6.5,42.2 23,7.8 39.4,42.2 				"/>
				<path id="Stroke-208" class="st1" d="M25.2,42.9C36.4,30.1,11.8,29,22.6,16.6c2.9-3.4,0.3-6.5,0.3-6.5"/>
				<polyline id="Stroke-190" class="st0" points="14.7,42.9 17,37 19.3,42.9 				"/>
				<path id="Stroke-192" class="st0" d="M16.2,41.4h1.5"/>
				<path id="Stroke-197" class="st0" d="M29.7,9.3h1.9c0.6,0,1.1,0.5,1.1,1.1s-0.5,1.1-1.1,1.1h-1.9V7.1h1.9c0.6,0,1.1,0.5,1.1,1.1
					s-0.5,1.1-1.1,1.1L29.7,9.3"/>
			</g>
		</g>
	</g>
</g>
</svg>
