<?xml version="1.0" encoding="utf-8"?>
<!-- Generator: Adobe Illustrator 25.0.1, SVG Export Plug-In . SVG Version: 6.00 Build 0)  -->
<svg version="1.1" id="Layer_1" xmlns="http://www.w3.org/2000/svg" xmlns:xlink="http://www.w3.org/1999/xlink" x="0px" y="0px"
	 viewBox="0 0 48 49" style="enable-background:new 0 0 48 49;" xml:space="preserve">
<style type="text/css">
	.st0{fill:none;stroke:#151727;stroke-width:2;stroke-linecap:round;stroke-linejoin:round;}
</style>
<desc>Created with Sketch.</desc>
<g id="Tour---Kingdom-of-Volcanoes-and-Glaciers" transform="translate(-269.000000, -2486.000000)">
	<g id="Tour-Overview" transform="translate(270.000000, 2328.000000)">
		<g id="Group-27">
			<g id="Tour-Details">
				<g id="Group-9">
					<g id="Group-8">
						<g id="Group-377" transform="translate(0.000000, 159.000000)">
							<polygon id="Stroke-417" class="st0" points="18,35.5 6.7,38.4 6.7,14.3 18,11.5 							"/>
							<polygon id="Stroke-418" class="st0" points="28,15.7 18,11.5 18,35.5 28,39.8 							"/>
							<polyline id="Stroke-419" class="st0" points="28,15.7 28,39.8 39.3,37 39.3,14.3 							"/>
							<path id="Stroke-420" class="st0" d="M33.6,7.2c-2.3,0-4.3,1.9-4.3,4.3s4.3,9.9,4.3,9.9s4.3-7.6,4.3-9.9S36,7.2,33.6,7.2
								L33.6,7.2z"/>
							<path id="Stroke-422" class="st0" d="M35,11.5c0,0.8-0.6,1.4-1.4,1.4s-1.4-0.6-1.4-1.4c0-0.8,0.6-1.4,1.4-1.4
								S35,10.7,35,11.5L35,11.5z"/>
						</g>
					</g>
				</g>
			</g>
		</g>
	</g>
</g>
</svg>
