<?xml version="1.0" encoding="utf-8"?>
<!-- Generator: Adobe Illustrator 25.0.1, SVG Export Plug-In . SVG Version: 6.00 Build 0)  -->
<svg version="1.1" id="Layer_1" xmlns="http://www.w3.org/2000/svg" xmlns:xlink="http://www.w3.org/1999/xlink" x="0px" y="0px"
	 viewBox="0 0 1004.1 701.3" style="enable-background:new 0 0 1004.1 701.3;" xml:space="preserve">
<style type="text/css">
	.st0{fill:none;stroke:#707070;stroke-width:2;}
</style>
<g id="back" transform="translate(-30.837 49.493) rotate(-4.012)">
	<path id="Path_66" class="st0" d="M538.7,350.2c15.4,0,29.4,0,41.5-19.3c12.1-18.8,11.1-28,10.6-35.2c-1-11.1,0.5-17.4,17.8-28
		l5.3-3.4c18.8-12.1,37.1-23.2,56-18.3c13.5,3.4,25.6,14,36.7,32.8c21.2,34.7,63.2,83.9,86.8,85.9c3.8,0.6,7.7-0.9,10.1-3.9l0.5-1
		c0,0-4.3-12.1-5.3-17.8c-6.3-60.8-23.6-88.3-70.4-104.7C681.4,221.4,622.6,164,596.1,151c-22.2-11.1-63.7-49.2-73.3-17.8
		c-4.8,14.9-43.4,50.2-43.4,92.1c0,25.6,2.9,51.6,4.8,77.2c1.9,22.7,15,35.2,29.4,50.6l2.9-1C524.7,350.2,531.9,350.2,538.7,350.2z"
		/>
	<path id="Path_67" class="st0" d="M191.4,510.3c3.4,1,4.8,0,5.3-0.5c3.9-2.4,5.3-11.6,6.8-20.3c2.4-14,5.3-29.9,17.4-38.1
		c7.7-5.3,17.8-6.3,30.4-3.9c7.7,1.4,14.5,2.9,20.7,4.3c42.9,9.6,56,12.5,72.3-21.2c15.4-31.4,40.5-29.9,64.1-24.1
		c-9.3-17.5-15.5-36.4-18.3-56c-4.8-30.9,0.5-67.5-11.1-96.5c-9.6-25.1-85.9,44.9-103.7,53.1c-21.2,9.6-15,27.5-53.1,39.1
		c-37.6,11.6-57.9,39.1-62.7,83.9c-0.5,5.8-3.9,9.6-8.2,13l0.5,1.4C164.4,481.9,179.8,507.5,191.4,510.3z"/>
	<path id="Path_68" class="st0" d="M730.6,69.5c-24.1-15-51.6-24.1-78.6-33.3C598,17.9,542.5-2.9,484.6,11.1
		c-32.8,8.2-62.2,24.6-91.6,41.5c-44.9,24.1-91.2,48.2-134.6,75.7c-12.1,7.7-24.1,16.9-27.5,31.4c-4.8,18.8,8.2,39.1,27,42
		c23.6,3.4,38.6-15.4,53.1-30.9s32.3-27.5,53.1-31.4c7.2-1.4,15-1.9,22.2,0c5.3,1,15,4.8,16.4,10.6c0.5,1.2,0.5,2.6,0,3.9
		c0,20.7-2.9,41-3.4,61.7c-0.5,21.7-0.5,43.4,1.9,65.1c5.8,49.7,22.7,100.3,55.5,139.4c15.4,18.3,27,38.6,37.1,63.7
		c-0.5,0.5-1,0.5-1.4,1c-8.2,1.9,23.2,86.8,72.3,121.5c7.2,4.8,13,7.7,18.3,8.7c0.5,0,1,0.5,1.4,0.5c13.5,4.8,31.4,11.1,41.5,13
		c11.6,2.4,14-0.5-7.7-14c-1-0.5-1.4-1-2.4-1.4c-5.3-3.4-10.1-6.8-14.5-10.1c0.6-1.9,0.9-3.8,1-5.8c1.4-14-4.3-31.8-11.1-33.8
		c-11.6,0-8.2-7.2-15-20.7c-6.8-13.5-15-8.2-15.9-21.2c-1-13-17.8-17.8-15-29.9c2.9-12.1-9.2-25.6-5.3-38.6s2.9-22.2-4.8-17.8
		c0,0-4.8,6.8-11.1,15c-15.9-28.9-37.1-54-49.7-84.4c-14.5-33.8-17.8-69.9-17.8-106.6c0-24.1,1.4-47.8,3.4-71.9
		c1.9-21.2,2.4-44.4,14-63.2c1-1.9,1.9-5.8,4.3-6.3c1,0,1.4-0.5,2.4-0.5c2.2-0.6,4.5-1.1,6.8-1.4l6.8-1c2.1-0.3,4.2-0.3,6.3,0
		c0,0-1.9-2.4-3.9-5.3c-1.2-1.9-2.4-3.8-3.4-5.8c-0.7-1.1-1.3-2.2-1.9-3.4c1.9-2.4,3.4-4.8,5.3-7.7c2.4,0.5,4.3,1,4.3,1
		c2.2,0.6,4.2,1.4,6.3,2.4l5.8,2.9c0,0-0.5-2.9-1-6.3l0-8.2c0-2.3,0.2-4.5,0.5-6.8c-0.1-1,0.1-2,0.5-2.9c1-1,1.9-1.4,2.9-2.4
		c1,0.5,1.9,1.4,3.4,2.4c1.9,1.3,3.7,2.7,5.3,4.3c0,0,2.4,2.4,4.8,4.3c2.4,2.4,4.3,4.8,4.3,4.8c0.3-2.1,0.8-4.2,1.4-6.3
		c1-3.4,1.9-6.3,1.9-6.3c0.6-2.2,1.4-4.2,2.4-6.3c1-2.4,1.9-4.3,2.4-5.3h0.5c1.4,1.5,2.7,3.1,3.9,4.8c1.9,2.9,3.9,5.3,3.9,5.3
		l3.9,5.8c1.2,1.9,2.4,3.8,3.4,5.8c0.6-2.4,1.6-4.7,2.9-6.8c1-2,2.1-3.9,3.4-5.8c1.2-1.9,2.4-3.8,3.4-5.8c0.5-1,1-1.4,1.4-2.4
		c1.4,0.5,2.9,0.5,4.8,1c0.5,0.5,0.5,1,1,1.4c1.4,2.9,2.9,6.3,2.9,6.3s1,2.9,2.4,6.3c1,2,1.8,4.1,2.4,6.3c0,0,1.9-2.9,3.9-5.3
		c1.9-2.9,3.9-5.3,3.9-5.3l2.9-3.9c2.9,1,5.8,1.4,8.2,2.4c0.6,1.1,1,2.2,1.4,3.4c0.6,2.2,1.4,4.2,2.4,6.3c1,3.4,1.9,6.3,1.9,6.3
		s1.9-2.4,4.3-5.3c2.4-2.4,4.3-4.8,4.3-4.8l1.4-1.4c3.9,1,7.7,1.9,11.1,2.9l0.5,1.4l3.9,13l9.2-9.6l1-1c3.9,1,7.2,1.9,11.1,2.9
		l0.5,1.4l3.4,13l9.2-9.6l1.4-1.4c3.9,1,7.7,1.9,11.1,2.9l0.5,1.9l3.4,13l9.2-9.6l1.4-1.4c3.4,1,6.8,1.9,10.6,2.9l0.5,1.9l5.3,12.1
		l9.7-9.6l1.4-1.4c3.9,1,7.2,1.9,11.1,2.9l0.5,1.9c0,0,1,3.4,1.9,6.3c0.5,1,0,1.4,0,2.4s0.5,1.4,0.5,1.9c-0.1,0.7,0.1,1.4,0.5,1.9
		l10.1-8.7l1.9-1.9c3.4,1,6.3,1.9,9.6,2.9l0.5,3.4l2.4,13l10.1-8.7l2.4-1.4c3.9,1.4,7.7,2.4,11.6,3.9
		C768.7,103.3,752.8,83.5,730.6,69.5z M265.7,182.4c-8.3,0-15-6.7-15-15c0-8.3,6.7-15,15-15c8.3,0,15,6.7,15,15l0,0
		C280.6,175.7,273.9,182.4,265.7,182.4z"/>
	<path id="Path_69" class="st0" d="M510.7,579.8c-6.3-17.8-13-35.7-20.7-53.1C475,493,455.7,465,430.6,438
		c-4.3-4.3-11.1-12.5-11.1-12.5l-8.7-0.5l-1.9-0.5c-26-6.8-39.6-6.3-49.7,14c-22.2,45.8-48.2,40-91.2,30.4c-6.3-1.4-13-2.9-20.7-4.3
		c-7.2-2.4-13-1.9-16.9,0.5c-6.3,4.3-8.7,16.4-10.1,27c-2.4,12.5-4.3,25.1-14,31.4c-3.6,2.3-7.8,3.5-12.1,3.4
		c-2.1,0.1-4.2-0.1-6.3-0.5c-23.2-5.3-40-42.9-50.6-74.3c-3.2,2.1-6.2,4.3-9.2,6.8c-12.1,10.6-25.1,19.8-38.6,28.5
		c-5.8,3.9-11.6,7.2-17.8,10.6c-42,22.7-61.7,81.5-68.5,125.4c-1,4.8-1.4,10.1,0.5,14.5c2.4,6.8,9.6,11.1,17.4,12.5
		c14,1.9,29.4-2.9,42.4-5.8c23.6-5.3,48.2-14.5,72.8-14.5c32.8,0,64.6,10.1,97.4,12.1c35.2,1.9,70.4-1,105.6-0.5
		c25.6,0.5,51.1,1.4,76.2,3.4c23.6,2.4,48.7,9.2,72.8,6.8c15-1.4,36.2-9.6,40.5-26C532.4,609.2,516,594.3,510.7,579.8z"/>
	<path id="Path_70" class="st0" d="M975.2,587.5c-10.6-34.2-23.2-69.9-43.4-100.3c-22.7-35.2-51.6-57.9-89.7-73.8
		c-11.1-4.8-13-12.5-19.3-23.1c-2.9-4.8-5.3-9.6-7.7-14.5c-0.5-0.5-0.5-1-1-1.4c-5.1,4.3-11.6,6.7-18.3,6.8h-2.9
		c-37.1-2.9-85.9-70.4-99.8-94.1c-8.7-14.5-17.4-22.7-26-25.1c-12.5-2.9-27.5,6.3-43.4,16.4l-5.3,3.4c-10.6,6.3-10.6,7.2-10.1,12.5
		c0.5,8.2,1.4,22.2-13,45.3c-16.9,26.5-39.1,27-55.5,27c-4.8,0-9.6,0-14,1c6.3,13,16.9,34.2,16.9,34.2c3.9,7.7,4.3,23.6,6.8,32.8
		c7.2,31.8,16.9,56,41,78.6c17.4,16.4,28.9,30.9,35.7,54c5.3,18.8,11.1,42.4,28.5,54.5c15.4,10.1,29.9-1,45.8,3.4
		c4.8,1.4,8.7,4.3,13,7.2c33.8,22.7,76.2,19.3,114.8,18.3c42.9-1,85.4-1.4,128.3-2.4c8.7,0,17.8-0.5,25.6-4.8
		C1002.2,630.9,980,603.9,975.2,587.5z"/>
</g>
</svg>
