<?xml version="1.0" encoding="utf-8"?>
<!-- Generator: Adobe Illustrator 25.0.1, SVG Export Plug-In . SVG Version: 6.00 Build 0)  -->
<svg version="1.1" id="Layer_1" xmlns="http://www.w3.org/2000/svg" xmlns:xlink="http://www.w3.org/1999/xlink" x="0px" y="0px"
	 viewBox="0 0 80.34 60.26" style="enable-background:new 0 0 80.34 60.26;" xml:space="preserve">
<style type="text/css">
	.st0{fill:#FE0000;}
</style>
<path class="st0" d="M38.25,11.91c5.16,0,10.32-0.09,15.48,0.02c7.2,0.16,11.9,4.6,12.24,11.76c0.24,5,0.25,10.03,0.02,15.02
	c-0.33,7.22-4.88,11.83-12.09,11.98c-10.48,0.21-20.97,0.2-31.45,0c-6.89-0.13-11.62-4.66-12.09-11.55
	c-0.35-5.15-0.34-10.37-0.03-15.52c0.43-7.14,5.24-11.52,12.45-11.69C27.93,11.81,33.09,11.91,38.25,11.91z M49.14,31.88
	c-5.6-3.07-9.98-5.66-14.56-7.79c-0.76-0.35-3.43,1.16-3.52,2.01c-0.4,3.61-0.25,7.29-0.14,10.95c0.08,2.59,1.57,3.05,3.71,2
	C39.06,36.87,43.48,34.68,49.14,31.88z"/>
</svg>
